<mxfile host="Electron" agent="Mozilla/5.0 (Windows NT 10.0; Win64; x64) AppleWebKit/537.36 (KHTML, like Gecko) draw.io/24.7.8 Chrome/128.0.6613.36 Electron/32.0.1 Safari/537.36" version="24.7.8">
  <diagram name="Page-1" id="itVIhuQAz1xCoi4s5Q9a">
    <mxGraphModel dx="2022" dy="703" grid="1" gridSize="10" guides="1" tooltips="1" connect="1" arrows="1" fold="1" page="1" pageScale="1" pageWidth="827" pageHeight="1169" math="0" shadow="0">
      <root>
        <mxCell id="0" />
        <mxCell id="1" parent="0" />
        <mxCell id="wSfkl8B4R-_Hj5SkAYMV-16" value="Host Controller" style="rounded=0;whiteSpace=wrap;html=1;" vertex="1" parent="1">
          <mxGeometry x="240" y="100" width="120" height="40" as="geometry" />
        </mxCell>
        <mxCell id="wSfkl8B4R-_Hj5SkAYMV-17" value="Forecast.Solar API" style="rounded=0;whiteSpace=wrap;html=1;" vertex="1" parent="1">
          <mxGeometry x="440" y="100" width="120" height="40" as="geometry" />
        </mxCell>
        <mxCell id="wSfkl8B4R-_Hj5SkAYMV-18" value="" style="rounded=0;whiteSpace=wrap;html=1;" vertex="1" parent="1">
          <mxGeometry x="290" y="140" width="20" height="180" as="geometry" />
        </mxCell>
        <mxCell id="wSfkl8B4R-_Hj5SkAYMV-19" value="" style="rounded=0;whiteSpace=wrap;html=1;" vertex="1" parent="1">
          <mxGeometry x="490" y="140" width="20" height="180" as="geometry" />
        </mxCell>
        <mxCell id="wSfkl8B4R-_Hj5SkAYMV-21" value="" style="endArrow=none;html=1;rounded=0;" edge="1" parent="1">
          <mxGeometry width="50" height="50" relative="1" as="geometry">
            <mxPoint x="270" y="290" as="sourcePoint" />
            <mxPoint x="270" y="240" as="targetPoint" />
          </mxGeometry>
        </mxCell>
        <mxCell id="wSfkl8B4R-_Hj5SkAYMV-22" value="30 min" style="text;html=1;align=center;verticalAlign=middle;whiteSpace=wrap;rounded=0;rotation=-90;" vertex="1" parent="1">
          <mxGeometry x="230" y="250" width="60" height="30" as="geometry" />
        </mxCell>
        <mxCell id="wSfkl8B4R-_Hj5SkAYMV-23" value="" style="endArrow=none;html=1;rounded=0;" edge="1" parent="1">
          <mxGeometry width="50" height="50" relative="1" as="geometry">
            <mxPoint x="270" y="210" as="sourcePoint" />
            <mxPoint x="270" y="160" as="targetPoint" />
          </mxGeometry>
        </mxCell>
        <mxCell id="wSfkl8B4R-_Hj5SkAYMV-24" value="30 min" style="text;html=1;align=center;verticalAlign=middle;whiteSpace=wrap;rounded=0;rotation=-90;" vertex="1" parent="1">
          <mxGeometry x="230" y="170" width="60" height="30" as="geometry" />
        </mxCell>
        <mxCell id="wSfkl8B4R-_Hj5SkAYMV-30" value="" style="endArrow=classic;html=1;rounded=0;" edge="1" parent="1">
          <mxGeometry width="50" height="50" relative="1" as="geometry">
            <mxPoint x="330" y="160" as="sourcePoint" />
            <mxPoint x="470" y="160" as="targetPoint" />
          </mxGeometry>
        </mxCell>
        <mxCell id="wSfkl8B4R-_Hj5SkAYMV-31" value="" style="endArrow=classic;html=1;rounded=0;" edge="1" parent="1">
          <mxGeometry width="50" height="50" relative="1" as="geometry">
            <mxPoint x="470" y="170" as="sourcePoint" />
            <mxPoint x="330" y="170" as="targetPoint" />
          </mxGeometry>
        </mxCell>
        <UserObject label="&lt;p class=&quot;MsoNormal&quot;&gt;&lt;span style=&quot;font-size: 8px;&quot;&gt;endpoint&lt;/span&gt;&lt;/p&gt;&lt;p class=&quot;MsoNormal&quot;&gt;&lt;font style=&quot;font-size: 8px;&quot;&gt;https://api.forecast.solar/estimate/latitude/longitude/declination/azimuth/modules_power_kw&lt;/font&gt;&lt;/p&gt;" link="&lt;p class=&quot;MsoNormal&quot;&gt;https://api.forecast.solar/estimate/latitude/longitude/declination/azimuth/modules_power_kw&lt;/p&gt;" id="wSfkl8B4R-_Hj5SkAYMV-32">
          <mxCell style="text;whiteSpace=wrap;html=1;align=center;" vertex="1" parent="1">
            <mxGeometry x="40" y="320" width="320" height="60" as="geometry" />
          </mxCell>
        </UserObject>
        <mxCell id="wSfkl8B4R-_Hj5SkAYMV-33" value="&lt;font style=&quot;font-size: 8px;&quot;&gt;request prediction&lt;/font&gt;" style="text;html=1;align=center;verticalAlign=middle;resizable=0;points=[];autosize=1;strokeColor=none;fillColor=none;" vertex="1" parent="1">
          <mxGeometry x="355" y="130" width="90" height="30" as="geometry" />
        </mxCell>
        <mxCell id="wSfkl8B4R-_Hj5SkAYMV-35" value="&lt;span style=&quot;font-size: 8px;&quot;&gt;send prediction&lt;/span&gt;" style="text;html=1;align=center;verticalAlign=middle;resizable=0;points=[];autosize=1;strokeColor=none;fillColor=none;" vertex="1" parent="1">
          <mxGeometry x="360" y="170" width="80" height="30" as="geometry" />
        </mxCell>
        <mxCell id="wSfkl8B4R-_Hj5SkAYMV-36" value="Web Application" style="rounded=0;whiteSpace=wrap;html=1;" vertex="1" parent="1">
          <mxGeometry x="40" y="100" width="120" height="40" as="geometry" />
        </mxCell>
        <mxCell id="wSfkl8B4R-_Hj5SkAYMV-37" value="" style="rounded=0;whiteSpace=wrap;html=1;" vertex="1" parent="1">
          <mxGeometry x="90" y="140" width="20" height="180" as="geometry" />
        </mxCell>
        <mxCell id="wSfkl8B4R-_Hj5SkAYMV-44" value="Database" style="rounded=0;whiteSpace=wrap;html=1;" vertex="1" parent="1">
          <mxGeometry x="-160" y="100" width="120" height="40" as="geometry" />
        </mxCell>
        <mxCell id="wSfkl8B4R-_Hj5SkAYMV-45" value="" style="rounded=0;whiteSpace=wrap;html=1;" vertex="1" parent="1">
          <mxGeometry x="-110" y="140" width="20" height="180" as="geometry" />
        </mxCell>
        <mxCell id="wSfkl8B4R-_Hj5SkAYMV-46" value="" style="shape=partialRectangle;whiteSpace=wrap;html=1;top=0;bottom=0;fillColor=none;rotation=90;" vertex="1" parent="1">
          <mxGeometry x="190" y="145" width="20" height="80" as="geometry" />
        </mxCell>
        <mxCell id="wSfkl8B4R-_Hj5SkAYMV-47" value="&lt;font style=&quot;font-size: 8px;&quot;&gt;Web Socket&lt;/font&gt;" style="text;html=1;align=center;verticalAlign=middle;whiteSpace=wrap;rounded=0;" vertex="1" parent="1">
          <mxGeometry x="160" y="170" width="80" height="30" as="geometry" />
        </mxCell>
        <mxCell id="wSfkl8B4R-_Hj5SkAYMV-49" value="" style="endArrow=classic;html=1;rounded=0;" edge="1" parent="1">
          <mxGeometry width="50" height="50" relative="1" as="geometry">
            <mxPoint x="40" y="200" as="sourcePoint" />
            <mxPoint x="-40" y="200" as="targetPoint" />
          </mxGeometry>
        </mxCell>
        <mxCell id="wSfkl8B4R-_Hj5SkAYMV-50" value="&lt;font style=&quot;font-size: 8px;&quot;&gt;Create Prediction Record&lt;/font&gt;" style="text;html=1;align=center;verticalAlign=middle;whiteSpace=wrap;rounded=0;" vertex="1" parent="1">
          <mxGeometry x="-50" y="200" width="100" height="30" as="geometry" />
        </mxCell>
        <mxCell id="wSfkl8B4R-_Hj5SkAYMV-51" value="" style="endArrow=classic;html=1;rounded=0;" edge="1" parent="1">
          <mxGeometry width="50" height="50" relative="1" as="geometry">
            <mxPoint x="330" y="240" as="sourcePoint" />
            <mxPoint x="470" y="240" as="targetPoint" />
          </mxGeometry>
        </mxCell>
        <mxCell id="wSfkl8B4R-_Hj5SkAYMV-52" value="" style="endArrow=classic;html=1;rounded=0;" edge="1" parent="1">
          <mxGeometry width="50" height="50" relative="1" as="geometry">
            <mxPoint x="470" y="250" as="sourcePoint" />
            <mxPoint x="330" y="250" as="targetPoint" />
          </mxGeometry>
        </mxCell>
        <mxCell id="wSfkl8B4R-_Hj5SkAYMV-53" value="&lt;font style=&quot;font-size: 8px;&quot;&gt;request prediction&lt;/font&gt;" style="text;html=1;align=center;verticalAlign=middle;resizable=0;points=[];autosize=1;strokeColor=none;fillColor=none;" vertex="1" parent="1">
          <mxGeometry x="355" y="210" width="90" height="30" as="geometry" />
        </mxCell>
        <mxCell id="wSfkl8B4R-_Hj5SkAYMV-54" value="&lt;span style=&quot;font-size: 8px;&quot;&gt;send prediction&lt;/span&gt;" style="text;html=1;align=center;verticalAlign=middle;resizable=0;points=[];autosize=1;strokeColor=none;fillColor=none;" vertex="1" parent="1">
          <mxGeometry x="360" y="250" width="80" height="30" as="geometry" />
        </mxCell>
        <mxCell id="wSfkl8B4R-_Hj5SkAYMV-55" value="" style="shape=partialRectangle;whiteSpace=wrap;html=1;top=0;bottom=0;fillColor=none;rotation=90;" vertex="1" parent="1">
          <mxGeometry x="190" y="230" width="20" height="80" as="geometry" />
        </mxCell>
        <mxCell id="wSfkl8B4R-_Hj5SkAYMV-56" value="&lt;font style=&quot;font-size: 8px;&quot;&gt;Web Socket&lt;/font&gt;" style="text;html=1;align=center;verticalAlign=middle;whiteSpace=wrap;rounded=0;" vertex="1" parent="1">
          <mxGeometry x="160" y="255" width="80" height="30" as="geometry" />
        </mxCell>
        <mxCell id="wSfkl8B4R-_Hj5SkAYMV-57" value="" style="endArrow=classic;html=1;rounded=0;" edge="1" parent="1">
          <mxGeometry width="50" height="50" relative="1" as="geometry">
            <mxPoint x="40" y="280" as="sourcePoint" />
            <mxPoint x="-40" y="280" as="targetPoint" />
          </mxGeometry>
        </mxCell>
        <mxCell id="wSfkl8B4R-_Hj5SkAYMV-58" value="&lt;font style=&quot;font-size: 8px;&quot;&gt;Create Prediction Record&lt;/font&gt;" style="text;html=1;align=center;verticalAlign=middle;whiteSpace=wrap;rounded=0;" vertex="1" parent="1">
          <mxGeometry x="-50" y="280" width="100" height="30" as="geometry" />
        </mxCell>
      </root>
    </mxGraphModel>
  </diagram>
</mxfile>
